<svg fill="none" viewBox="0 -2 24 22" xmlns="http://www.w3.org/2000/svg">
<g>
<path fill-rule="evenodd" clip-rule="evenodd" d="m 20.8477 1.8787 C 19.6761 0.7071 17.7766 0.7071 16.605 1.8787 L 5.4474 13.0363 C 5.0286 13.4551 4.7432 13.9885 4.627 14.5692 L 4.0399 17.5046 C 3.7601 18.904 4.9939 20.1379 6.3933 19.858 L 9.3287 19.2709 C 9.9094 19.1548 10.4428 18.8693 10.8617 18.4505 L 22.0192 7.2929 C 23.1908 6.1213 23.1908 4.2218 22.0192 3.0503 L 20.8477 1.8787 Z M 18.0192 3.2929 C 18.4098 2.9024 19.0429 2.9024 19.4335 3.2929 L 20.605 4.4645 C 20.9956 4.855 20.9956 5.4882 20.605 5.8787 L 17.9334 8.5503 L 15.3477 5.9645 L 18.0192 3.2929 Z M 13.9334 7.3787 L 6.8617 14.4505 C 6.722 14.5901 6.6269 14.7679 6.5882 14.9615 L 6.0011 17.8968 L 8.9364 17.3097 C 9.13 17.271 9.3078 17.1759 9.4474 17.0363 L 16.5192 9.9645 L 13.9334 7.3787 Z" fill="#0F0F0F"></path>
</g></svg>
