<?xml version="1.0" standalone="no"?>
<!DOCTYPE svg PUBLIC "-//W3C//DTD SVG 20010904//EN"
 "http://www.w3.org/TR/2001/REC-SVG-20010904/DTD/svg10.dtd">
<svg version="1.0" xmlns="http://www.w3.org/2000/svg"
 width="700.000000pt" height="700.000000pt" viewBox="0 0 700.000000 700.000000"
 preserveAspectRatio="xMidYMid meet">
<metadata>
Created by potrace 1.14, written by Peter Selinger 2001-2017
</metadata>
<g transform="translate(0.000000,700.000000) scale(0.100000,-0.100000)"
fill="#000000" stroke="none">
<path d="M1539 6085 c-3 -2 -27 -7 -54 -10 -294 -38 -613 -214 -815 -450 -156
-182 -269 -430 -307 -670 -10 -62 -11 -2832 -1 -2895 69 -449 329 -808 733
-1013 96 -49 244 -98 341 -113 21 -3 59 -10 84 -14 25 -5 916 -9 1980 -9 2094
0 2002 -2 2199 55 336 97 639 347 799 660 65 126 114 269 128 369 3 22 10 58
14 80 5 22 9 427 10 900 l0 861 -350 -1 -350 0 -1 -830 c0 -456 -2 -841 -5
-855 -42 -258 -218 -451 -474 -521 -62 -18 -165 -18 -1990 -16 l-1925 2 -65
23 c-94 34 -188 92 -253 157 -59 59 -130 166 -148 226 -39 127 -38 91 -36
1504 l2 1360 27 73 c85 235 273 390 513 426 11 2 649 4 1418 5 l1397 1 0 350
0 350 -1434 0 c-788 0 -1435 -2 -1437 -5z"/>
<path d="M5497 5754 c-1 -1 -28 -4 -60 -8 -148 -15 -319 -100 -437 -216 -154
-151 -228 -317 -235 -525 -8 -230 64 -422 220 -580 111 -113 236 -184 390
-220 68 -16 234 -22 285 -10 14 3 41 8 60 11 19 3 69 19 110 35 173 66 329
208 413 375 58 115 81 212 81 349 0 112 -8 172 -35 249 -103 292 -342 492
-637 532 -40 5 -151 11 -155 8z"/>
<path d="M2780 4963 c-454 -68 -806 -279 -1050 -629 -94 -135 -199 -373 -224
-506 -2 -13 -7 -41 -11 -63 -4 -22 -10 -49 -12 -60 -3 -11 -6 -90 -8 -175 -6
-312 69 -578 233 -830 48 -72 141 -189 192 -240 56 -56 188 -160 260 -204 85
-53 230 -126 250 -126 6 0 18 -4 28 -10 35 -19 180 -55 322 -79 57 -10 338 -7
400 4 195 34 377 100 538 197 298 179 528 466 635 793 57 173 72 273 72 480
-1 232 -43 417 -140 620 -172 357 -485 633 -859 759 -149 50 -267 69 -441 71
-88 1 -171 0 -185 -2z m365 -722 c152 -42 308 -146 404 -271 53 -69 116 -196
138 -280 18 -68 24 -251 11 -325 -25 -143 -112 -310 -212 -411 -75 -74 -219
-160 -317 -188 -91 -27 -99 -28 -214 -31 -92 -3 -126 0 -204 20 -163 42 -319
145 -420 275 -53 68 -116 195 -138 280 -24 88 -24 290 0 380 19 73 94 230 132
275 145 173 280 252 510 299 57 11 235 -2 310 -23z"/>
</g>
</svg>
